<svg xmlns="http://www.w3.org/2000/svg" viewBox="0 0 64.0 97.7" width="64.0" height="97.7" role="img" aria-label="N"><defs><path id="g" d="M40.8 84.9 32.5 61.8V84.9H15.5V13.0H32.2L40.5 36.2V13.0H57.5V84.9Z"/><clipPath id="clip"><use href="#g"/></clipPath><clipPath id="sil"><path d="M15.5 13.0L15.5 14.0L15.5 15.0L15.5 16.0L15.5 17.0L15.5 18.0L15.5 19.0L15.5 20.0L15.5 21.0L15.5 22.0L15.5 23.0L15.5 24.0L15.5 25.0L15.5 26.0L15.5 27.0L15.5 28.0L15.5 29.0L15.5 30.0L15.5 31.0L15.5 32.0L15.5 33.0L15.5 34.0L15.5 35.0L15.5 36.0L15.5 37.0L15.5 38.0L15.5 39.0L15.5 40.0L15.5 41.0L15.5 42.0L15.5 43.0L15.5 44.0L15.5 45.0L15.5 46.0L15.5 47.0L15.5 48.0L15.5 49.0L15.5 50.0L15.5 51.0L15.5 52.0L15.5 53.0L15.5 54.0L15.5 55.0L15.5 56.0L15.5 57.0L15.5 58.0L15.5 59.0L15.5 60.0L15.5 61.0L15.5 62.0L15.5 63.0L15.5 64.0L15.5 65.0L15.5 66.0L15.5 67.0L15.5 68.0L15.5 69.0L15.5 70.0L15.5 71.0L15.5 72.0L15.5 73.0L15.5 74.0L15.5 75.0L15.5 76.0L15.5 77.0L15.5 78.0L15.5 79.0L15.5 80.0L15.5 81.0L15.5 82.0L0.0 82.0L0.0 97.7L64.0 97.7L64.0 82.0L57.5 82.0L57.5 81.0L57.5 80.0L57.5 79.0L57.5 78.0L57.5 77.0L57.5 76.0L57.5 75.0L57.5 74.0L57.5 73.0L57.5 72.0L57.5 71.0L57.5 70.0L57.5 69.0L57.5 68.0L57.5 67.0L57.5 66.0L57.5 65.0L57.5 64.0L57.5 63.0L57.5 62.0L57.5 61.0L57.5 60.0L57.5 59.0L57.5 58.0L57.5 57.0L57.5 56.0L57.5 55.0L57.5 54.0L57.5 53.0L57.5 52.0L57.5 51.0L57.5 50.0L57.5 49.0L57.5 48.0L57.5 47.0L57.5 46.0L57.5 45.0L57.5 44.0L57.5 43.0L57.5 42.0L57.5 41.0L57.5 40.0L57.5 39.0L57.5 38.0L57.5 37.0L57.5 36.0L57.5 35.0L57.5 34.0L57.5 33.0L57.5 32.0L57.5 31.0L57.5 30.0L57.5 29.0L57.5 28.0L57.5 27.0L57.5 26.0L57.5 25.0L57.5 24.0L57.5 23.0L57.5 22.0L57.5 21.0L57.5 20.0L57.5 19.0L57.5 18.0L57.5 17.0L57.5 16.0L57.5 15.0L57.5 14.0L57.5 13.0Z"/></clipPath><linearGradient id="face" x1="0" y1="0" x2="0" y2="1"><stop offset="0" stop-color="#FFFFFF"/><stop offset="1" stop-color="#ECE9E2"/></linearGradient></defs><g clip-path="url(#sil)"><g stroke="#6A665E" stroke-width="1.5" stroke-linecap="round" fill="none"><line x1="13.3" y1="7.8" x2="48.6" y2="90.8"/><line x1="13.3" y1="90.8" x2="48.6" y2="7.8"/></g><polygon points="11.9,3.8 8.1,5.7 8.1,94.7 11.9,92.8" fill="#6C685F"/><polygon points="11.9,92.8 8.1,94.7 10.9,94.7 14.7,92.8" fill="#6C685F"/><rect x="11.9" y="3.8" width="2.8" height="89.0" fill="#A7A299" stroke="#585550" stroke-width="0.6"/><polygon points="47.2,3.8 43.4,5.7 43.4,94.7 47.2,92.8" fill="#6C685F"/><polygon points="47.2,92.8 43.4,94.7 46.2,94.7 50.0,92.8" fill="#6C685F"/><rect x="47.2" y="3.8" width="2.8" height="89.0" fill="#A7A299" stroke="#585550" stroke-width="0.6"/></g><g><use href="#g" transform="translate(-9.0,4.5)" fill="#8E8A82" stroke="#585550" stroke-width="1.3" stroke-linejoin="round"/><use href="#g" transform="translate(-8.6,4.3)" fill="#8E8A82"/><use href="#g" transform="translate(-8.2,4.1)" fill="#8E8A82"/><use href="#g" transform="translate(-7.8,3.9)" fill="#8E8A82"/><use href="#g" transform="translate(-7.4,3.7)" fill="#8E8A82"/><use href="#g" transform="translate(-7.0,3.5)" fill="#8E8A82"/><use href="#g" transform="translate(-6.5,3.3)" fill="#8E8A82"/><use href="#g" transform="translate(-6.1,3.1)" fill="#8E8A82"/><use href="#g" transform="translate(-5.7,2.9)" fill="#8E8A82"/><use href="#g" transform="translate(-5.3,2.7)" fill="#8E8A82"/><use href="#g" transform="translate(-4.9,2.5)" fill="#8E8A82"/><use href="#g" transform="translate(-4.5,2.2)" fill="#8E8A82"/><use href="#g" transform="translate(-4.1,2.0)" fill="#8E8A82"/><use href="#g" transform="translate(-3.7,1.8)" fill="#8E8A82"/><use href="#g" transform="translate(-3.3,1.6)" fill="#8E8A82"/><use href="#g" transform="translate(-2.9,1.4)" fill="#8E8A82"/><use href="#g" transform="translate(-2.5,1.2)" fill="#8E8A82"/><use href="#g" transform="translate(-2.0,1.0)" fill="#8E8A82"/><use href="#g" transform="translate(-1.6,0.8)" fill="#8E8A82"/><use href="#g" transform="translate(-1.2,0.6)" fill="#8E8A82"/><use href="#g" transform="translate(-0.8,0.4)" fill="#8E8A82"/><use href="#g" transform="translate(-0.4,0.2)" fill="#8E8A82"/></g><use href="#g" fill="url(#face)" stroke="#5E5A52" stroke-width="1.7" stroke-linejoin="round"/><g clip-path="url(#clip)" stroke="#CFC8BA" stroke-width="0.7" opacity="0.55"><line x1="9.0" y1="0" x2="9.0" y2="82.0"/><line x1="18.0" y1="0" x2="18.0" y2="82.0"/><line x1="27.0" y1="0" x2="27.0" y2="82.0"/><line x1="36.0" y1="0" x2="36.0" y2="82.0"/><line x1="45.0" y1="0" x2="45.0" y2="82.0"/><line x1="54.0" y1="0" x2="54.0" y2="82.0"/><line x1="63.0" y1="0" x2="63.0" y2="82.0"/><line x1="0" y1="9.0" x2="64.0" y2="9.0"/><line x1="0" y1="18.0" x2="64.0" y2="18.0"/><line x1="0" y1="27.0" x2="64.0" y2="27.0"/><line x1="0" y1="36.0" x2="64.0" y2="36.0"/><line x1="0" y1="45.0" x2="64.0" y2="45.0"/><line x1="0" y1="54.0" x2="64.0" y2="54.0"/><line x1="0" y1="63.0" x2="64.0" y2="63.0"/><line x1="0" y1="72.0" x2="64.0" y2="72.0"/><line x1="0" y1="81.0" x2="64.0" y2="81.0"/></g></svg>